<svg width="150" height="70" viewBox="0 0 177 38" fill="none" xmlns="http://www.w3.org/2000/svg">
<path d="M1.61863 35.1185L5.68831 0.757393H14.1052L21.1809 24.898L28.2566 0.757393H36.5809L40.6969 35.1185H32.0488L29.4127 13.0127L30.7076 13.0589L25.2968 35.1185H16.88L11.4229 13.0589L12.8565 13.0127L10.2667 35.1185H1.61863ZM63.8681 35.1185L42.5485 0.757393H52.4453L73.7649 35.1185H63.8681ZM42.6873 35.1185L54.3876 15.8337L59.0123 23.3719L52.584 35.1185H42.6873ZM62.0183 20.4121L57.4399 13.0127L64.0994 0.757393H73.9961L62.0183 20.4121Z" fill="url(#paint0_linear_4871_54)"/>
<path d="M115.961 2.2779C112.745 5.94867 103.93 17.502 104.853 17.502" stroke="url(#paint1_linear_4871_54)" stroke-width="2.56954"/>
<path d="M126.515 23.3843C126.515 30.2265 120.969 35.7731 114.126 35.7731C107.284 35.7731 101.738 30.2265 101.738 23.3843C101.738 16.5421 107.284 10.9954 114.126 10.9954C120.969 10.9954 126.515 16.5421 126.515 23.3843ZM104.408 23.3843C104.408 28.7513 108.759 33.1022 114.126 33.1022C119.493 33.1022 123.844 28.7513 123.844 23.3843C123.844 18.0172 119.493 13.6664 114.126 13.6664C108.759 13.6664 104.408 18.0172 104.408 23.3843Z" fill="url(#paint2_linear_4871_54)"/>
<path d="M81.6113 2.72041H91.7155L84.5819 12.3718C88.7115 11.913 96.9708 13.6566 96.9708 24.3018C96.6649 29.3492 91.9235 38.5261 77.6992 32.5611" stroke="url(#paint3_linear_4871_54)" stroke-width="2.56954"/>
<path d="M161.432 12.3601C162.05 12.087 162.777 12.3659 163.005 13.0024C164.221 16.3975 164.329 20.1029 163.294 23.5796C162.143 27.4485 159.653 30.7817 156.269 32.9827C152.886 35.1837 148.829 36.1088 144.826 35.5926C140.822 35.0763 137.133 33.1524 134.419 30.1651C131.704 27.1777 130.141 23.3218 130.009 19.2874C129.877 15.253 131.185 11.3034 133.699 8.14514C136.213 4.98691 139.769 2.82623 143.73 2.0497C147.289 1.35193 150.967 1.81274 154.231 3.34667C154.843 3.63426 155.051 4.38482 154.72 4.97443C154.389 5.56404 153.645 5.76863 153.03 5.48847C150.276 4.23482 147.189 3.86642 144.201 4.45233C140.81 5.11701 137.766 6.96651 135.615 9.66989C133.463 12.3733 132.343 15.7541 132.456 19.2075C132.569 22.6608 133.907 25.9614 136.231 28.5185C138.554 31.0756 141.712 32.7224 145.139 33.1643C148.566 33.6062 152.038 32.8143 154.934 30.9303C157.831 29.0463 159.962 26.1932 160.948 22.8814C161.816 19.9622 161.744 16.8545 160.759 13.994C160.538 13.3547 160.813 12.6332 161.432 12.3601Z" fill="url(#paint4_linear_4871_54)"/>
<path d="M140.169 24.9146C139.844 25.2144 139.335 25.1957 139.062 24.8476C138.024 23.5239 137.334 21.9563 137.061 20.2879C136.745 18.3554 137.003 16.3726 137.802 14.585C138.602 12.7975 139.908 11.2837 141.559 10.2311C143.211 9.17856 145.134 8.63345 147.092 8.66331C149.05 8.69316 150.957 9.29665 152.575 10.3991C154.193 11.5015 155.453 13.0544 156.198 14.8655C156.942 16.6766 157.139 18.6663 156.765 20.5883C156.441 22.2476 155.703 23.7935 154.626 25.0849C154.342 25.4245 153.833 25.4277 153.517 25.1181L151.372 23.0161C151.056 22.7066 151.057 22.2024 151.316 21.8443C151.776 21.2104 152.094 20.4815 152.245 19.7068C152.448 18.6689 152.341 17.5945 151.939 16.6165C151.537 15.6385 150.857 14.7999 149.983 14.2046C149.109 13.6093 148.08 13.2834 147.022 13.2673C145.965 13.2512 144.926 13.5456 144.034 14.1139C143.143 14.6823 142.437 15.4998 142.006 16.465C141.574 17.4303 141.435 18.501 141.605 19.5446C141.733 20.3235 142.029 21.0618 142.469 21.7094C142.717 22.0753 142.702 22.5792 142.377 22.879L140.169 24.9146Z" fill="url(#paint5_linear_4871_54)"/>
<path d="M152.588 25.9459C152.859 26.2952 152.797 26.8013 152.427 27.0437C150.753 28.1413 148.782 28.7151 146.768 28.6804C144.754 28.6458 142.803 28.0047 141.168 26.8502C140.806 26.5951 140.762 26.0872 141.045 25.7474L142.967 23.4402C143.25 23.1005 143.753 23.0604 144.131 23.2902C144.946 23.7862 145.883 24.06 146.847 24.0766C147.811 24.0931 148.756 23.8517 149.588 23.384C149.974 23.1673 150.475 23.2247 150.746 23.574L152.588 25.9459Z" fill="url(#paint6_linear_4871_54)"/>
<path d="M152.588 25.9459C152.859 26.2952 152.797 26.8013 152.427 27.0437C150.753 28.1413 148.782 28.7151 146.768 28.6804C144.754 28.6458 142.803 28.0047 141.168 26.8502C140.806 26.5951 140.762 26.0872 141.045 25.7474L142.967 23.4402C143.25 23.1005 143.753 23.0604 144.131 23.2902C144.946 23.7862 145.883 24.06 146.847 24.0766C147.811 24.0931 148.756 23.8517 149.588 23.384C149.974 23.1673 150.475 23.2247 150.746 23.574L152.588 25.9459Z" fill="url(#paint7_linear_4871_54)"/>
<circle cx="146.94" cy="18.672" r="2.30997" fill="url(#paint8_linear_4871_54)"/>
<circle cx="146.94" cy="18.672" r="2.30997" fill="url(#paint9_linear_4871_54)"/>
<path d="M165.952 3.096H164.032V2.4H168.664V3.096H166.744V8H165.952V3.096ZM174.727 8L174.719 3.92L172.695 7.32H172.327L170.303 3.944V8H169.535V2.4H170.191L172.527 6.336L174.831 2.4H175.487L175.495 8H174.727Z" fill="#FF7D79"/>
<defs>
<linearGradient id="paint0_linear_4871_54" x1="37.2881" y1="1.44384" x2="37.2809" y2="38.0021" gradientUnits="userSpaceOnUse">
<stop stop-color="#FF9462"/>
<stop offset="1" stop-color="#FF7A7A"/>
</linearGradient>
<linearGradient id="paint1_linear_4871_54" x1="110.651" y1="2.2779" x2="106.492" y2="14.2252" gradientUnits="userSpaceOnUse">
<stop stop-color="#FF9562"/>
<stop offset="1" stop-color="#FF8D6A"/>
</linearGradient>
<linearGradient id="paint2_linear_4871_54" x1="114.685" y1="1.52734" x2="114.126" y2="35.7731" gradientUnits="userSpaceOnUse">
<stop stop-color="#FF9462"/>
<stop offset="1" stop-color="#FF7A7A"/>
</linearGradient>
<linearGradient id="paint3_linear_4871_54" x1="87.5297" y1="3.37014" x2="87.5297" y2="35.9336" gradientUnits="userSpaceOnUse">
<stop stop-color="#FF9462"/>
<stop offset="1" stop-color="#FF7A7A"/>
</linearGradient>
<linearGradient id="paint4_linear_4871_54" x1="146.94" y1="2.50217" x2="147" y2="35.7322" gradientUnits="userSpaceOnUse">
<stop stop-color="#FF9663"/>
<stop offset="1" stop-color="#FF7B7A"/>
</linearGradient>
<linearGradient id="paint5_linear_4871_54" x1="146.94" y1="8.66214" x2="146.94" y2="28.6819" gradientUnits="userSpaceOnUse">
<stop stop-color="#FF8854" stop-opacity="0.28"/>
<stop offset="1" stop-color="#FF6B63" stop-opacity="0.44"/>
</linearGradient>
<linearGradient id="paint6_linear_4871_54" x1="146.555" y1="23.292" x2="146.539" y2="28.6819" gradientUnits="userSpaceOnUse">
<stop stop-color="#FFB795"/>
<stop offset="1" stop-color="#FE8F8F"/>
</linearGradient>
<linearGradient id="paint7_linear_4871_54" x1="146.555" y1="23.292" x2="146.539" y2="28.6819" gradientUnits="userSpaceOnUse">
<stop stop-color="#FF8347"/>
<stop offset="1" stop-color="#FF4747"/>
</linearGradient>
<linearGradient id="paint8_linear_4871_54" x1="146.94" y1="16.3621" x2="146.94" y2="20.982" gradientUnits="userSpaceOnUse">
<stop stop-color="#FEAE87"/>
<stop offset="1" stop-color="#FFA09E"/>
</linearGradient>
<linearGradient id="paint9_linear_4871_54" x1="146.851" y1="19.7382" x2="146.847" y2="20.982" gradientUnits="userSpaceOnUse">
<stop stop-color="#FF8347"/>
<stop offset="1" stop-color="#FF4747"/>
</linearGradient>
</defs>
</svg>
